<svg height="512" viewBox="0 0 58 58" width="512" xmlns="http://www.w3.org/2000/svg"><g id="Page-1" fill="none" fill-rule="evenodd"><g id="033---Disk" fill-rule="nonzero"><path id="Shape" d="m40 4v33.13c-1.7604403.4601182-2.9885159 2.0504234-2.9885159 3.87s1.2280756 3.4098818 2.9885159 3.87v2.13l-14.56.85c-1.73.1-3.56.15-5.44.15-11.05 0-20-1.79-20-4v-40z" fill="#3f5c6c"/><ellipse id="Oval" cx="20" cy="4" fill="#547580" rx="20" ry="4"/><path id="Shape" d="m0 30c0 2.209 8.954 4 20 4s20-1.791 20-4v-13c0 2.209-8.954 4-20 4s-20-1.791-20-4z" fill="#35495e"/><path id="Shape" d="m27.97 17.231c-.5522847.023196-1.018804-.4057153-1.042-.958s.4057153-1.018804.958-1.042c2.6497678-.1928699 5.2802325-.5941102 7.867-1.2.5338367-.1329664 1.0748187.1902488 1.210707.7233492.1358884.5331004-.1843589 1.0758446-.716707 1.2146508-2.6930849.6338577-5.4318708 1.0548236-8.191 1.259-.029.002-.056.003-.086.003z" fill="#35495e"/><circle id="Oval" cx="4" cy="10" fill="#ff5364" r="1"/><path id="Shape" d="m4 17c-.55228475 0-1-.4477153-1-1v-2c0-.5522847.44771525-1 1-1s1 .4477153 1 1v2c0 .5522847-.44771525 1-1 1z" fill="#35495e"/><circle id="Oval" cx="4" cy="23" fill="#ff5364" r="1"/><path id="Shape" d="m4 30c-.55228475 0-1-.4477153-1-1v-2c0-.5522847.44771525-1 1-1s1 .4477153 1 1v2c0 .5522847-.44771525 1-1 1z" fill="#2c3e50"/><circle id="Oval" cx="4" cy="36" fill="#ff5364" r="1"/><path id="Shape" d="m4 43c-.55228475 0-1-.4477153-1-1v-2c0-.5522847.44771525-1 1-1s1 .4477153 1 1v2c0 .5522847-.44771525 1-1 1z" fill="#35495e"/><path id="Shape" d="m41 24c-.33 0-.67.01-1 .03-8.9864469.5255281-16.0036985 7.9682005-16 16.97-.0060066 2.3590845.4846299 4.6930152 1.44 6.85 3.4183555 7.7643279 12.0376992 11.8200699 20.1990647 9.5044585s13.3663657-10.2937127 12.1976964-18.6963405c-1.1686694-8.4026279-8.353251-14.6575391-16.8367611-14.658118zm0 21c-.3377372.0030533-.6742693-.0406959-1-.13-1.7604403-.4601182-2.9885159-2.0504234-2.9885159-3.87s1.2280756-3.4098818 2.9885159-3.87c.3257307-.0893041.6622628-.1330533 1-.13 2.209139 0 4 1.790861 4 4s-1.790861 4-4 4z" fill="#67b9cc"/><g fill="#2fa8cc"><path id="Shape" d="m28 42c-.5522847 0-1-.4477153-1-1 .0082673-7.7285595 6.2714405-13.9917327 14-14 .5522847 0 1 .4477153 1 1s-.4477153 1-1 1c-6.624447.0071648-11.9928352 5.375553-12 12 0 .2652165-.1053568.5195704-.2928932.7071068s-.4418903.2928932-.7071068.2928932z"/><path id="Shape" d="m41 55c-.5522847 0-1-.4477153-1-1s.4477153-1 1-1c6.624447-.0071648 11.9928352-5.375553 12-12 0-.5522847.4477153-1 1-1s1 .4477153 1 1c-.0082673 7.7285595-6.2714405 13.9917327-14 14z"/><path id="Shape" d="m32 42c-.5522847 0-1-.4477153-1-1 .0060624-5.5203344 4.4796656-9.9939376 10-10 .5522847 0 1 .4477153 1 1s-.4477153 1-1 1c-4.4162219.0049599-7.9950401 3.5837781-8 8 0 .5522847-.4477153 1-1 1z"/><path id="Shape" d="m41 51c-.5522847 0-1-.4477153-1-1s.4477153-1 1-1c4.4162219-.0049599 7.9950401-3.5837781 8-8 0-.5522847.4477153-1 1-1s1 .4477153 1 1c-.0060624 5.5203344-4.4796656 9.9939376-10 10z"/></g></g></g></svg>