<svg id="Capa_1" enable-background="new 0 0 512 512" height="512" viewBox="0 0 512 512" width="512" xmlns="http://www.w3.org/2000/svg"><g><path d="m213.46 341.461-139.26 156.08c-16.17 18.48-44.53 19.33-61.8 2.06-17.32-17.32-16.37-45.67 2.06-61.8l156.08-139.26s13.46-2.54 29.46 13.46 13.46 29.46 13.46 29.46z" fill="#0052be"/><path d="m213.46 341.461-139.26 156.08c-16.17 18.48-44.53 19.33-61.8 2.06l187.6-187.6c16 16 13.46 29.46 13.46 29.46z" fill="#00429b"/><path d="m304 240.001-90.54 101.46c-14.997-14.997-27.922-27.922-42.92-42.92l101.46-90.54z" fill="#00429b"/><path d="m304 240.001-90.54 101.46-21.46-21.46 96-96z" fill="#00337a"/><path d="m400 279.001h-64.4l-42.47 57.87c-7.88 10.735-24.824 6.606-26.91-6.52l-11.56-73.01-73.01-11.56c-13.139-2.087-17.244-19.042-6.52-26.91l57.87-42.47v-64.4c0-12.176 13.797-19.289 23.72-12.21l50.15 35.83 70.92-19.9c11.25-3.168 21.656 7.245 18.49 18.49l-19.9 70.92 35.83 50.15c7.071 9.913-.02 23.72-12.21 23.72z" fill="#ffdd54"/><path d="m412.21 255.281c7.071 9.913-.02 23.72-12.21 23.72h-64.4l-42.47 57.87c-7.875 10.728-24.823 6.616-26.91-6.52l-11.56-73.01 137.79-137.79c3.83 3.84 5.3 9.44 3.83 14.66l-19.9 70.92z" fill="#ffb454"/><path d="m512 39.001c0 8.28-6.72 15-15 15h-9v9c0 8.28-6.72 15-15 15s-15-6.72-15-15v-9h-9c-8.28 0-15-6.72-15-15s6.72-15 15-15h9v-9c0-8.28 6.72-15 15-15s15 6.72 15 15v9h9c8.28 0 15 6.719 15 15z" fill="#bee75e"/><path d="m512 39.001c0 8.28-6.72 15-15 15h-9v9c0 8.28-6.72 15-15 15s-15-6.72-15-15v-9l30-30h9c8.28 0 15 6.719 15 15z" fill="#00cb75"/><path d="m336 41.001h-9v-9c0-8.284-6.716-15-15-15s-15 6.716-15 15v9h-9c-8.284 0-15 6.716-15 15s6.716 15 15 15h9v9c0 8.284 6.716 15 15 15s15-6.716 15-15v-9h9c8.284 0 15-6.716 15-15s-6.716-15-15-15z" fill="#f6f9f9"/><path d="m441 224.001c0 8.284 6.716 15 15 15s15-6.716 15-15v-9h9c8.284 0 15-6.716 15-15s-6.716-15-15-15h-9v-9c0-8.284-6.716-15-15-15s-15 6.716-15 15v9h-9c-8.284 0-15 6.716-15 15s6.716 15 15 15h9z" fill="#e2dff4"/><path d="m497 329.001h-9v-9c0-8.284-6.716-15-15-15s-15 6.716-15 15v9h-9c-8.284 0-15 6.716-15 15s6.716 15 15 15h9v9c0 8.284 6.716 15 15 15s15-6.716 15-15v-9h9c8.284 0 15-6.716 15-15s-6.716-15-15-15z" fill="#ff4a4a"/><path d="m192 24.001h-9v-9c0-8.284-6.716-15-15-15s-15 6.716-15 15v9h-9c-8.284 0-15 6.716-15 15s6.716 15 15 15h9v9c0 8.284 6.716 15 15 15s15-6.716 15-15v-9h9c8.284 0 15-6.716 15-15s-6.716-15-15-15z" fill="#ff8659"/><path d="m159.442 122.977-56-32c-7.191-4.109-16.355-1.611-20.466 5.581-4.11 7.193-1.611 16.355 5.581 20.466l56 32c7.16 4.093 16.337 1.644 20.466-5.581 4.111-7.193 1.612-16.355-5.581-20.466z" fill="#f6f9f9"/><path d="m118.14 169.117-64 8c-8.221 1.027-14.052 8.524-13.023 16.744 1.027 8.218 8.523 14.054 16.744 13.023l64-8c8.221-1.027 14.052-8.524 13.023-16.744-1.028-8.22-8.527-14.062-16.744-13.023z" fill="#acceff"/><path d="m389.023 352.558c-4.111-7.193-13.274-9.693-20.466-5.581-7.192 4.11-9.691 13.272-5.581 20.466l32 56c2.769 4.845 7.83 7.561 13.037 7.561 11.319 0 18.784-12.341 13.01-22.445z" fill="#e2dff4"/><path d="m329.86 377.117c-8.222-1.031-15.717 4.804-16.744 13.023l-8 64c-1.117 8.925 5.834 16.862 14.902 16.862 7.455 0 13.917-5.553 14.865-13.142l8-64c1.029-8.219-4.802-15.716-13.023-16.743z" fill="#6ba7ff"/></g></svg>