<svg height="512" viewBox="0 0 60 60" width="512" xmlns="http://www.w3.org/2000/svg"><g id="Page-1" fill="none" fill-rule="evenodd"><g id="035---Add-Data" fill-rule="nonzero"><g id="Icons" transform="translate(1 1)"><path id="Shape" d="m58 14c0 2.21-9 4-20 4-2.47 0-4.83-.09-7-.25.5792698-.4035173.9464452-1.0460741 1-1.75v-5.82c1.9-.12 3.91-.18 6-.18 11.05 0 20 1.79 20 4z" fill="#ffeb3a"/><path id="Shape" d="m38 10h-1.22c10.22.2 18.22 1.91 18.22 4s-8.2 3.84-18.58 4h1.58c11 0 20-1.79 20-4s-8.95-4-20-4z" fill="#fdd834"/><path id="Shape" d="m58 14v13c0 2.21-9 4-20 4-2.46 0-4.82-.09-7-.25v-4.75c0-.5522847-.4477153-1-1-1h-9v-4.26c4.62-.46 8.3-1.58 10-3 2.18.16 4.54.25 7 .25 11.05.01 20-1.78 20-3.99z" fill="#ffdc00"/><path id="Shape" d="m55 16.1v10.9c0 2.11-8.2 3.84-18.58 4h1.58c11 0 20-1.79 20-4v-13c0 .77-1.11 1.49-3 2.1z" fill="#fec108"/><path id="Shape" d="m58 27v13c0 2.21-9 4-20 4-7.19 0-13.49-.76-17-1.9.0049288-.0331511.0049288-.0668489 0-.1v-9h9c.5522847 0 1-.4477153 1-1v-1.25c2.18.16 4.54.25 7 .25 11.05 0 20-1.79 20-4z" fill="#ff9801"/><path id="Shape" d="m55 29.1v10.9c0 2.12-8.21 3.84-18.6 4h1.6c11 0 20-1.79 20-4v-13c0 .77-1.11 1.49-3 2.1z" fill="#f57c00"/><path id="Shape" d="m58 40v14c0 2.21-9 4-20 4s-20-1.79-20-4v-11h2c.5154781.0025832.948458-.3870987 1-.9 3.52 1.14 9.82 1.9 17 1.9 11.05 0 20-1.79 20-4z" fill="#ffdc00"/><path id="Shape" d="m55 42.1v11.9c0 2.11-8.15 3.83-18.5 4h1.5c11 0 20-1.79 20-4v-14c0 .77-1.11 1.49-3 2.1z" fill="#fec108"/><ellipse id="Oval" cx="16" cy="5" fill="#9d27b0" rx="16" ry="5"/><path id="Shape" d="m32 5v11c-.0535548.7039259-.4207302 1.3464827-1 1.75-1.69 1.41-5.37 2.53-10 3v-4.75c0-.5522847-.4477153-1-1-1h-6c-.5522847 0-1 .4477153-1 1v4.91c-7.4-.44-13-2.47-13-4.91v-11c0 2.76 7.16 5 16 5s16-2.24 16-5z" fill="#673ab7"/><path id="Shape" d="m31 26v6c0 .5522847-.4477153 1-1 1h-9v9c.0049288.0331511.0049288.0668489 0 .1-.051542.5129013-.4845219.9025832-1 .9h-6c-.5522847 0-1-.4477153-1-1v-9h-9c-.55228475 0-1-.4477153-1-1v-6c0-.5522847.44771525-1 1-1h9v-9c0-.5522847.4477153-1 1-1h6c.5522847 0 1 .4477153 1 1v9h9c.5522847 0 1 .4477153 1 1z" fill="#a4c400"/></g><g id="Icons_copy" fill="#000"><path id="Shape" d="m39 10c-1.73 0-3.4.05-5 .13v-4.13c0-3.94-8.55-6-17-6s-17 2.06-17 6v11c0 3.57 6.8 5.35 13 5.84v2.16h-8c-1.1045695 0-2 .8954305-2 2v6c0 1.1045695.8954305 2 2 2h8v8c0 1.1045695.8954305 2 2 2h3v10c0 4.94 20.14 5 21 5s21-.06 21-5v-40c0-4.94-20.14-5-21-5zm19 31c-.47 1.1-7.19 3-19 3-6.35 0-12.37-.62-16-1.64v-7.36h8c1.1045695 0 2-.8954305 2-2v-.19c2 .12 4 .19 6 .19.69 0 13.89 0 19-2.64zm0-13c-.47 1.1-7.19 3-19 3-2 0-4-.07-6-.2v-3.8c0-1.1045695-.8954305-2-2-2h-8v-2.37c4.13-.5 7.44-1.52 9.28-2.86 2.18.15 4.43.23 6.72.23.69 0 13.89 0 19-2.64zm-19-16c11.84 0 18.57 2 19 3-.43 1.05-7.16 3-19 3-1.75 0-3.46-.06-5.14-.15.0890171-.2747122.1362116-.5612502.14-.85v-4.86c1.6-.09 3.27-.14 5-.14zm-22-10c9.16 0 15 2.37 15 4s-5.84 4-15 4-15-2.37-15-4 5.84-4 15-4zm-15 15v-8c3 2 9 3 15 3s12-1 15-3v8c-.0702671.4084045-.3052924.7699819-.65 1-1.4 1.16-4.54 2.14-8.33 2.62v-3.62c0-1.1045695-.8954305-2-2-2h-6.02c-1.1045695 0-2 .8954305-2 2v3.83c-7.09-.58-11-2.59-11-3.83zm12 16h-9v-6h9c.5522847 0 1-.4477153 1-1v-9h6v9c0 .5522847.4477153 1 1 1h9v6h-9c-.5522847 0-1 .4477153-1 1v9c-.0084793-.0697432-.0084793-.1402568 0-.21-.0047474.0699195-.0047474.1400805 0 .21h-6v-9c0-.5522847-.4477153-1-1-1zm25 25c-11.84 0-18.57-2-19-3v-10h1c.5811279-.0028735 1.1322694-.2583696 1.51-.7 3.85 1.07 9.91 1.7 16.49 1.7.69 0 13.89 0 19-2.64v11.64c-.47 1.06-7.2 3-19 3z"/><path id="Shape" d="m47 28.23h.09c2.7476065-.1993402 5.4757169-.6105627 8.16-1.23.3465476-.0893164.6191211-.3567291.7150447-.7015063.0959235-.3447773.0006241-.7145392-.25-.9700001-.2506241-.2554608-.6184971-.35781-.9650447-.2684936-2.5844212.6057915-5.2125521 1.0070329-7.86 1.2-.5327656.0577855-.9252781.5252722-.89 1.06.046703.5168638.4810348.9121057 1 .91z"/><circle id="Oval" cx="23" cy="47" r="1"/><path id="Shape" d="m23 50c-.5522847 0-1 .4477153-1 1v2c0 .5522847.4477153 1 1 1s1-.4477153 1-1v-2c0-.5522847-.4477153-1-1-1z"/><circle id="Oval" cx="5" cy="13" r="1"/><circle id="Oval" cx="5" cy="16" r="1"/></g></g></g></svg>