<svg height="512" viewBox="0 0 60 60" width="512" xmlns="http://www.w3.org/2000/svg"><g id="Page-1" fill="none" fill-rule="evenodd"><g id="015---Server-Files" fill-rule="nonzero"><g id="Icons" transform="translate(1 1)"><ellipse id="Oval" cx="20" cy="4" fill="#02a9f4" rx="20" ry="4"/><path id="Shape" d="m20 0h-1.5c10.35.17 18.5 1.89 18.5 4s-8.15 3.83-18.5 4h1.5c11 0 20-1.79 20-4s-8.95-4-20-4z" fill="#0377bc"/><path id="Shape" d="m40 4v13c0 2.21-9 4-20 4s-20-1.79-20-4v-13c0 2.21 9 4 20 4s20-1.79 20-4z" fill="#3f51b5"/><path id="Shape" d="m37 6.1v10.9c0 2.11-8.15 3.83-18.5 4h1.5c11 0 20-1.79 20-4v-13c0 .77-1.11 1.49-3 2.1z" fill="#283593"/><path id="Shape" d="m24 34v14c-1.29 0-2.63.08-4 .08-11-.08-20-1.87-20-4.08v-14c0 2.21 9 4 20 4h2z" fill="#3f51b5"/><path id="Shape" d="m40 17v7h-14c-1.1045695 0-2 .8954305-2 2v8h-2-2c-11 0-20-1.79-20-4v-13c0 2.21 9 4 20 4s20-1.79 20-4z" fill="#02a9f4"/><path id="Shape" d="m37 19.1v4.9h3v-7c0 .77-1.11 1.49-3 2.1z" fill="#0377bc"/><rect id="Rectangle-path" fill="#607d8b" height="34" rx="2" width="34" x="24" y="24"/><circle id="Oval" cx="41" cy="45" fill="#f5f5f5" r="6"/><circle id="Oval" cx="41" cy="45" fill="#7f8e94" r="2"/><path id="Shape" d="m45 24v11h-13c-1.1045695 0-2-.8954305-2-2v-9z" fill="#f5f5f5"/></g><g id="Icons_copy" fill="#000"><path id="Shape" d="m29 18.23h.09c2.7476065-.1993402 5.4757169-.6105627 8.16-1.23.5357162-.1380712.8580712-.6842838.72-1.22s-.6842838-.8580712-1.22-.72c-2.5844212.6057915-5.2125521 1.0070329-7.86 1.2-.5327656.0577855-.9252781.5252722-.89 1.06.046703.5168638.4810348.9121057 1 .91z"/><circle id="Oval" cx="5" cy="11" r="1"/><path id="Shape" d="m5 14c-.55228475 0-1 .4477153-1 1v2c0 .5522847.44771525 1 1 1s1-.4477153 1-1v-2c0-.5522847-.44771525-1-1-1z"/><circle id="Oval" cx="5" cy="24" r="1"/><path id="Shape" d="m5 27c-.55228475 0-1 .4477153-1 1v2c0 .5522847.44771525 1 1 1s1-.4477153 1-1v-2c0-.5522847-.44771525-1-1-1z"/><circle id="Oval" cx="5" cy="37" r="1"/><path id="Shape" d="m5 40c-.55228475 0-1 .4477153-1 1v2c0 .5522847.44771525 1 1 1s1-.4477153 1-1v-2c0-.5522847-.44771525-1-1-1z"/><path id="Shape" d="m57 24h-15v-19c0-4.94-20.14-5-21-5s-21 .06-21 5v40c0 4.94 20.14 5 21 5h3v7c0 1.6568542 1.3431458 3 3 3h30c1.6568542 0 3-1.3431458 3-3v-30c0-1.6568542-1.3431458-3-3-3zm-24 11c-.5522847 0-1-.4477153-1-1v-8h13v9zm14-9h5v8c0 .5522847-.4477153 1-1 1h-4zm-16-2h-4c-1.6568542 0-3 1.3431458-3 3v7h-1-2c-11.78 0-18.5-1.93-19-3v-10.64c5.11 2.64 18.31 2.64 19 2.64s13.89 0 19-2.64v3.64zm9-6c-.48 1.1-7.2 3-19 3s-18.57-1.95-19-3v-10.64c5.11 2.64 18.31 2.64 19 2.64s13.89 0 19-2.64zm-19-16c11.67 0 18.37 1.9 19 3-.61 1.1-7.31 3-19 3s-18.52-1.94-19-2.94v-.06c.48-1.06 7.2-3 19-3zm0 46c-11.78 0-18.5-1.93-19-3v-11.64c5.11 2.64 18.31 2.64 19 2.64h2 1v12c-1 0-2 0-3 0zm37 9c0 .5522847-.4477153 1-1 1h-30c-.5522847 0-1-.4477153-1-1v-30c0-.5522847.4477153-1 1-1h3v8c0 1.6568542 1.3431458 3 3 3h18c1.6568542 0 3-1.3431458 3-3v-8h3c.5522847 0 1 .4477153 1 1z"/><path id="Shape" d="m42 39c-3.8659932 0-7 3.1340068-7 7s3.1340068 7 7 7 7-3.1340068 7-7-3.1340068-7-7-7zm0 12c-2.7614237 0-5-2.2385763-5-5s2.2385763-5 5-5 5 2.2385763 5 5-2.2385763 5-5 5z"/><path id="Shape" d="m42 43c-1.6568542 0-3 1.3431458-3 3s1.3431458 3 3 3 3-1.3431458 3-3-1.3431458-3-3-3zm0 4c-.5522847 0-1-.4477153-1-1s.4477153-1 1-1 1 .4477153 1 1-.4477153 1-1 1z"/><path id="Shape" d="m35 28c-.5522847 0-1 .4477153-1 1v3c0 .5522847.4477153 1 1 1s1-.4477153 1-1v-3c0-.5522847-.4477153-1-1-1z"/><path id="Shape" d="m30 54h-1c-.5522847 0-1 .4477153-1 1s.4477153 1 1 1h1c.5522847 0 1-.4477153 1-1s-.4477153-1-1-1z"/><path id="Shape" d="m55 54h-1c-.5522847 0-1 .4477153-1 1s.4477153 1 1 1h1c.5522847 0 1-.4477153 1-1s-.4477153-1-1-1z"/></g></g></g></svg>