<svg height="512" viewBox="0 0 64 64" width="512" xmlns="http://www.w3.org/2000/svg"><g id="Icons"><g><g><path d="m54 29v6h-19v19h-6v-19h-19v-6z" fill="#0a5078"/></g><g><path d="m13.24 29c-.32 1.959-.321 4.036 0 6h-3.24v-6z" fill="#00325a"/></g><g><path d="m54 29v6h-3.24c.32-1.96.321-4.036 0-6z" fill="#00325a"/></g><g><path d="m35 50.76v3.24h-6v-3.24c1.96.32 4.036.321 6 0z" fill="#00325a"/></g><g><path d="m40.48 35h-5.48v5.48c-1.866.675-4.03.713-6 0v-5.48h-5.48c-.675-1.866-.713-4.03 0-6h16.96c.675 1.866.712 4.03 0 6z" fill="#00325a"/></g><g><circle cx="32" cy="32" fill="#0a5078" r="8"/></g><g><circle cx="32" cy="32" fill="#fab400" r="4"/></g><g><path d="m32 6c-14.36 0-26 11.64-26 26s11.64 26 26 26 26-11.64 26-26-11.64-26-26-26zm0 46c-11.05 0-20-8.95-20-20s8.95-20 20-20 20 8.95 20 20-8.95 20-20 20z" fill="#0a5078"/></g></g><g><g><path d="m55.61 21.12-4.62 4.62c-1.97-6.01-6.72-10.76-12.73-12.73l4.62-4.62c5.62 2.58 10.15 7.11 12.73 12.73z" fill="#00325a"/></g><g><path d="m47.757 24.728-8.485-8.485c-.781-.781-.781-2.047 0-2.828l4.243-4.243c1.562-1.562 4.095-1.562 5.657 0l5.657 5.657c1.562 1.562 1.562 4.095 0 5.657l-4.243 4.243c-.781.78-2.048.78-2.829-.001z" fill="#f0c8a0"/></g><g><path d="m42.101 19.071-1.414-1.414 3.536-3.536c.391-.391 1.024-.391 1.414 0 .391.391.391 1.024 0 1.414z" fill="#d2aa82"/></g><g><path d="m46.343 23.314-1.414-1.414 3.536-3.536c.391-.391 1.024-.391 1.414 0 .391.391.391 1.024 0 1.414z" fill="#d2aa82"/></g></g><g><g><path d="m25.74 13.01c-6.01 1.97-10.76 6.72-12.73 12.73l-4.62-4.62c2.58-5.62 7.11-10.15 12.73-12.73z" fill="#00325a"/></g><g><path d="m16.243 24.728 8.485-8.485c.781-.781.781-2.047 0-2.828l-4.243-4.243c-1.562-1.562-4.095-1.562-5.657 0l-5.657 5.657c-1.562 1.562-1.562 4.095 0 5.657l4.243 4.243c.781.78 2.048.78 2.829-.001z" fill="#f0c8a0"/></g><g><path d="m21.899 19.071 1.414-1.414-3.536-3.536c-.391-.391-1.024-.391-1.414 0-.391.391-.391 1.024 0 1.414z" fill="#d2aa82"/></g><g><path d="m17.657 23.314 1.414-1.414-3.536-3.536c-.391-.391-1.024-.391-1.414 0-.391.391-.391 1.024 0 1.414z" fill="#d2aa82"/></g></g></g></svg>