<svg height="512" viewBox="0 0 58 58" width="512" xmlns="http://www.w3.org/2000/svg"><g id="Page-1" fill="none" fill-rule="evenodd"><g id="016---Timeline" fill-rule="nonzero"><path id="Shape" d="m52 4v22.54l-.35.46-17.65 23h-30c-2.209139 0-4-1.790861-4-4v-42c0-2.209139 1.790861-4 4-4h44c2.209139 0 4 1.790861 4 4z" fill="#ecf0f1"/><path id="Shape" d="m52 19v-2h-8v-7c0-.55228475-.4477153-1-1-1s-1 .44771525-1 1v7h-8v-7c0-.55228475-.4477153-1-1-1s-1 .44771525-1 1v7h-8v-7c0-.55228475-.4477153-1-1-1s-1 .44771525-1 1v7h-9c-.5522847 0-1 .4477153-1 1s.4477153 1 1 1h9v6h-9c-.5522847 0-1 .4477153-1 1s.4477153 1 1 1h9v6h-9c-.5522847 0-1 .4477153-1 1s.4477153 1 1 1h9v6h-9c-.5522847 0-1 .4477153-1 1s.4477153 1 1 1h9v7h2v-7h10c.5522847 0 1-.4477153 1-1s-.4477153-1-1-1h-10v-6h10c.5522847 0 1-.4477153 1-1s-.4477153-1-1-1h-10v-6h27.65l.35-.46v-1.54h-8v-6zm-20 6h-8v-6h8zm10 0h-8v-6h8z" fill="#bdc3c7"/><path id="Shape" d="m13 10v40h-9c-2.209139 0-4-1.790861-4-4v-36z" fill="#95a5a5"/><path id="Shape" d="m52 4v6h-52v-6c0-2.209139 1.790861-4 4-4h44c2.209139 0 4 1.790861 4 4z" fill="#ff5364"/><path id="Shape" d="m34 30v24c0 2.21 5.37 4 12 4s12-1.79 12-4v-24z" fill="#3f5c6c"/><path id="Shape" d="m34 46c0 2.209 5.373 4 12 4s12-1.791 12-4v-8c0 2.209-5.373 4-12 4s-12-1.791-12-4z" fill="#35495e"/><g fill="#ff5364"><circle id="Oval" cx="38" cy="45" r="1"/><circle id="Oval" cx="38" cy="37" r="1"/><circle id="Oval" cx="38" cy="53" r="1"/></g><path id="Shape" d="m58 30c0 1.2-1.58 2.27-4.07 3-2.584676.6968944-5.2532304 1.0334082-7.93 1-6.63 0-12-1.79-12-4s5.37-4 12-4 12 1.79 12 4z" fill="#547580"/></g></g></svg>