<svg height="512" viewBox="0 0 58 58" width="512" xmlns="http://www.w3.org/2000/svg"><g id="Page-1" fill="none" fill-rule="evenodd"><g id="040---Files" fill-rule="nonzero"><path id="Shape" d="m0 16.5v24.5c0 2.21 5.37 4 12 4s12-1.79 12-4v-24.5z" fill="#3f5c6c"/><ellipse id="Oval" cx="12" cy="16.5" fill="#547580" rx="12" ry="4.5"/><path id="Shape" d="m58 9v16c-.0032948 1.1032019-.8967981 1.9967052-2 2h-17c-1.1032019-.0032948-1.9967052-.8967981-2-2v-23c.0032948-1.10320187.8967981-1.9967052 2-2h10z" fill="#f0c419"/><path id="Shape" d="m49 0 9 9h-7c-1.1045695 0-2-.8954305-2-2z" fill="#f3d55b"/><path id="Shape" d="m58 40v16c-.0032948 1.1032019-.8967981 1.9967052-2 2h-17c-1.1032019-.0032948-1.9967052-.8967981-2-2v-23c.0032948-1.1032019.8967981-1.9967052 2-2h10z" fill="#f0c419"/><path id="Shape" d="m49 31 9 9h-7c-1.1045695 0-2-.8954305-2-2z" fill="#f3d55b"/><path id="Shape" d="m42 44h-10c-.5522847 0-1-.4477153-1-1v-28c0-.5522847.4477153-1 1-1h10c.5522847 0 1-.4477153 1-1s-.4477153-1-1-1h-10c-1.6568542 0-3 1.3431458-3 3v13h-5c-.5522847 0-1 .4477153-1 1s.4477153 1 1 1h5v13c0 1.6568542 1.3431458 3 3 3h10c.5522847 0 1-.4477153 1-1s-.4477153-1-1-1z" fill="#26b99a"/><circle id="Oval" cx="45" cy="13" fill="#ff5364" r="3"/><circle id="Oval" cx="45" cy="45" fill="#ff5364" r="3"/><path id="Shape" d="m0 33c0 2.209 5.373 4 12 4s12-1.791 12-4v-8c0 2.209-5.373 4-12 4s-12-1.791-12-4z" fill="#35495e"/><g fill="#ff5364"><circle id="Oval" cx="4" cy="24" r="1"/><circle id="Oval" cx="4" cy="32" r="1"/><circle id="Oval" cx="4" cy="40" r="1"/></g></g></g></svg>