<svg id="Layer_1" enable-background="new 0 0 512 512" viewBox="0 0 512 512" xmlns="http://www.w3.org/2000/svg"><g clip-rule="evenodd" fill-rule="evenodd"><path d="m313.41 8.01-177.29-.02c-5.46 0-10.16 1.95-14.01 5.79l-58.33 58.32c-3.87 3.87-5.82 8.54-5.82 14l-.04 307.01c0 10.9 8.89 19.8 19.8 19.8l235.64.03c10.9 0 19.8-8.9 19.8-19.8l.05-365.34c0-10.89-8.9-19.79-19.8-19.79z" fill="#f5f8f9"/><path d="m127.91 9.69c-2.09.96-4.01 2.31-5.77 4.06l-58.36 58.35c-1.78 1.76-3.13 3.71-4.09 5.79l68.21.01z" fill="#ccc"/><path d="m59.74 77.81c-1.18 2.53-1.79 5.3-1.79 8.29l-.04 307.01c0 10.9 8.89 19.8 19.8 19.8h20.46c-10.9 0-19.77-8.9-19.77-19.8l.04-307.01c0-2.97.55-5.71 1.7-8.21h-20.46z" fill="#dddfe0"/><path d="m454.06 445.7c0 32.21-54.68 58.32-122.13 58.31-67.44-.01-122.09-26.13-122.08-58.34l.02-171.3 244.21.03z" fill="#fea832"/><path d="m237.55 482.69c-17.33-10.08-27.71-22.96-27.7-37.02l.02-171.3h27.71z" fill="#e5972d"/><path d="m454.07 360.43c0 32.21-54.68 58.29-122.13 58.28-67.42-.01-122.09-26.1-122.08-58.31l.01-86.04 244.21.03z" fill="#ffd75c"/><path d="m237.57 397.4c-17.33-10.08-27.71-22.96-27.7-36.99l.01-86.04h27.71z" fill="#e6c253"/><path d="m331.96 332.68c67.25.01 122.12-26.18 122.13-58.28 0-32.13-54.86-58.33-122.11-58.34s-122.09 26.18-122.1 58.31c-.01 32.1 54.83 58.3 122.08 58.31z" fill="#fea832"/><path d="m331.97 216.06c3.82 0 7.61.08 11.31.25-62.12 2.74-110.78 27.67-110.78 58.07 0 30.37 48.65 55.34 110.77 58.07-3.71.16-7.5.27-11.31.27-67.42-.01-122.09-26.13-122.08-58.34 0-32.22 54.68-58.33 122.09-58.32z" fill="#e5972d"/></g><path d="m170.08 56.97c0-4.42 3.58-8.01 8.01-8.01h104.97c4.42 0 8.01 3.58 8.01 8.01s-3.58 8.01-8.01 8.01h-104.97c-4.42-.01-8.01-3.59-8.01-8.01zm-61.98 100.44h174.95c4.42 0 8.01-3.58 8.01-8.01s-3.58-8.01-8.01-8.01h-174.95c-4.42 0-8.01 3.58-8.01 8.01s3.59 8.01 8.01 8.01zm64.12 76.39h-64.12c-4.42 0-8.01 3.58-8.01 8.01s3.58 8.01 8.01 8.01h64.12c4.42 0 8.01-3.58 8.01-8.01s-3.58-8.01-8.01-8.01zm0 92.44h-64.12c-4.42 0-8.01 3.58-8.01 8.01s3.58 8.01 8.01 8.01h64.12c4.42 0 8.01-3.58 8.01-8.01s-3.58-8.01-8.01-8.01zm289.94-51.8v171.35c0 18.83-14.32 36.04-40.33 48.46-24.13 11.52-56.02 17.86-89.82 17.86-33.79 0-65.68-6.34-89.8-17.86-26.01-12.42-40.33-29.63-40.33-48.46v-24.62h-124.22c-15.34 0-27.82-12.48-27.82-27.82v-307.27c0-3.97.79-7.73 2.31-11.19.05-.13.11-.25.17-.37 1.36-2.96 3.25-5.68 5.68-8.1l58.39-58.39c2.24-2.24 4.75-4.03 7.46-5.36.42-.24.87-.45 1.33-.61 3.37-1.42 7.02-2.16 10.87-2.16h177.45c15.34 0 27.82 12.47 27.82 27.79v180.57c68.48 2.36 120.84 30.57 120.84 66.18zm-47.3-33.99c-21.71-10.37-50.54-16.14-81.33-16.33-.07 0-.14.01-.21.01-.3 0-.6-.01-.91-.02-.13 0-.26-.01-.39-.01-31.36 0-60.78 5.8-82.83 16.34-19.88 9.5-31.28 21.89-31.28 33.99s11.4 24.49 31.28 33.99c22.06 10.54 51.47 16.34 82.83 16.34s60.78-5.8 82.85-16.34c19.89-9.5 31.29-21.89 31.29-33.99s-11.42-24.48-31.3-33.98zm-196.96 120.05c0 12.14 11.38 24.53 31.21 34 22.01 10.51 51.45 16.3 82.9 16.3 31.46 0 60.91-5.79 82.92-16.3 19.84-9.47 31.22-21.86 31.22-34v-53.7c-21.94 20.42-64.36 33.98-114.14 33.98-49.77 0-92.17-13.56-114.11-33.98zm-140.72-290.62h42.65v-42.65zm124.71 335.28v-130.72c0-36.06 53.69-64.54 123.42-66.26v-180.5c0-6.49-5.3-11.78-11.81-11.78h-177.45c-.07 0-.14.01-.21.01v61.97c0 4.42-3.58 8.01-8.01 8.01h-61.97c0 .06-.01.12-.01.18v307.28c0 6.51 5.3 11.81 11.81 11.81zm244.26 40.63v-52.78c-6.35 5.88-14.5 11.25-24.32 15.94-24.13 11.52-56.02 17.86-89.82 17.86-33.79 0-65.68-6.34-89.8-17.86-9.82-4.69-17.97-10.06-24.31-15.94v52.78c0 12.14 11.38 24.53 31.21 34 22.01 10.51 51.45 16.3 82.9 16.3 31.46 0 60.91-5.79 82.92-16.3 19.84-9.46 31.22-21.86 31.22-34z"/></svg>